<svg width="135" height="40" viewBox="0 0 135 40" xmlns="http://www.w3.org/2000/svg" xmlns:xlink="http://www.w3.org/1999/xlink"><title>app-store</title><defs><path id="a" d="M.06 40V.04H135V40z"/></defs><g fill="none" fill-rule="evenodd"><g><mask id="b" fill="#fff"><use xlink:href="#a"/></mask><path d="M130.197 40H4.73C2.12 40 0 37.872 0 35.267V4.727C0 2.12 2.122 0 4.73 0h125.467C132.803 0 135 2.12 135 4.726v30.54c0 2.606-2.197 4.734-4.803 4.734" fill="#A9AAA9" mask="url(#b)"/></g><path d="M134.032 35.268c0 2.116-1.714 3.83-3.834 3.83H4.728c-2.118 0-3.838-1.714-3.838-3.83V4.725C.89 2.61 2.61.89 4.73.89h125.467c2.12 0 3.834 1.72 3.834 3.835v30.543h.002" fill="#0A0B09"/><path d="M30.128 19.784c-.03-3.223 2.64-4.79 2.76-4.865-1.51-2.204-3.852-2.505-4.675-2.528-1.967-.207-3.875 1.177-4.877 1.177-1.022 0-2.566-1.158-4.228-1.124-2.14.033-4.142 1.272-5.24 3.196-2.266 3.923-.576 9.688 1.595 12.86 1.086 1.552 2.355 3.286 4.015 3.225 1.625-.068 2.232-1.037 4.194-1.037 1.943 0 2.513 1.037 4.207.998 1.743-.03 2.84-1.56 3.89-3.127 1.254-1.78 1.758-3.533 1.778-3.623-.04-.013-3.387-1.29-3.42-5.153M26.928 10.306c.873-1.093 1.47-2.58 1.305-4.09-1.265.057-2.847.875-3.757 1.945-.806.943-1.526 2.487-1.34 3.94 1.42.105 2.88-.718 3.792-1.794M49.755 25.955L48.63 22.48c-.12-.355-.342-1.19-.672-2.507h-.04c-.13.567-.34 1.402-.63 2.508l-1.106 3.475h3.573zm3.89 5.55h-2.27l-1.245-3.91h-4.323l-1.185 3.91h-2.21l4.283-13.31h2.646l4.305 13.31zM62.49 26.666c0-.934-.21-1.704-.632-2.31-.46-.63-1.08-.948-1.856-.948-.526 0-1.004.176-1.43.524-.43.35-.71.806-.84 1.373-.066.263-.1.48-.1.65v1.6c0 .698.215 1.287.643 1.767.428.48.984.72 1.668.72.803 0 1.43-.31 1.876-.927.446-.62.67-1.435.67-2.45zm2.172-.078c0 1.632-.44 2.922-1.323 3.87-.79.842-1.77 1.263-2.943 1.263-1.263 0-2.17-.453-2.724-1.362h-.04v5.055H55.5V25.067c0-1.026-.026-2.08-.078-3.16h1.875l.12 1.522h.04c.71-1.147 1.79-1.72 3.236-1.72 1.133 0 2.077.448 2.834 1.343.757.896 1.135 2.074 1.135 3.535zM73.527 26.666c0-.934-.21-1.704-.632-2.31-.46-.63-1.08-.948-1.856-.948-.528 0-1.005.176-1.433.524-.427.35-.706.806-.838 1.373-.066.263-.1.48-.1.65v1.6c0 .698.214 1.287.64 1.767.428.48.985.72 1.67.72.803 0 1.428-.31 1.875-.927.448-.62.672-1.435.672-2.45zm2.172-.078c0 1.632-.442 2.922-1.325 3.87-.79.842-1.77 1.263-2.94 1.263-1.265 0-2.173-.453-2.725-1.362h-.04v5.055h-2.132V25.067c0-1.026-.027-2.08-.08-3.16h1.877l.118 1.522h.04c.71-1.147 1.788-1.72 3.237-1.72 1.13 0 2.077.448 2.834 1.343.756.896 1.135 2.074 1.135 3.535zM88.04 27.773c0 1.13-.394 2.052-1.183 2.763-.867.778-2.074 1.165-3.625 1.165-1.43 0-2.58-.275-3.45-.828l.495-1.777c.936.566 1.963.85 3.082.85.802 0 1.427-.182 1.876-.545.448-.362.67-.847.67-1.454 0-.54-.183-.995-.553-1.364-.367-.37-.98-.712-1.835-1.03-2.33-.868-3.495-2.14-3.495-3.816 0-1.093.41-1.99 1.225-2.69.814-.698 1.9-1.047 3.258-1.047 1.21 0 2.217.21 3.02.63l-.534 1.738c-.75-.408-1.598-.612-2.547-.612-.75 0-1.336.184-1.756.553-.356.328-.534.73-.534 1.204 0 .526.203.96.612 1.302.355.317 1 .66 1.935 1.028 1.145.46 1.986 1 2.527 1.618.54.62.81 1.39.81 2.31M95.088 23.508h-2.35v4.66c0 1.184.414 1.776 1.244 1.776.38 0 .698-.033.948-.098l.058 1.62c-.42.156-.972.235-1.658.235-.842 0-1.5-.256-1.975-.768-.472-.514-.71-1.376-.71-2.587v-4.837h-1.4v-1.6h1.4V20.15l2.093-.63v2.388h2.35v1.6M103.48 26.696c0-.884-.19-1.643-.574-2.277-.447-.767-1.086-1.15-1.914-1.15-.857 0-1.508.383-1.955 1.15-.383.633-.572 1.404-.572 2.316 0 .885.19 1.644.572 2.277.46.765 1.106 1.148 1.936 1.148.814 0 1.453-.388 1.914-1.167.394-.646.592-1.413.592-2.297zm2.21-.07c0 1.476-.42 2.687-1.262 3.634-.883.974-2.055 1.46-3.516 1.46-1.408 0-2.53-.466-3.365-1.4-.836-.935-1.254-2.114-1.254-3.535 0-1.487.43-2.705 1.293-3.652.86-.948 2.023-1.422 3.484-1.422 1.41 0 2.54.468 3.397 1.403.816.908 1.224 2.08 1.224 3.514zM112.62 23.783c-.21-.04-.434-.058-.67-.058-.75 0-1.33.283-1.74.85-.355.5-.532 1.13-.532 1.894v5.034h-2.13l.018-6.574c0-1.107-.027-2.114-.08-3.022h1.858l.078 1.836h.058c.225-.63.58-1.14 1.067-1.52.474-.342.988-.513 1.54-.513.198 0 .376.015.534.04v2.033M120.123 25.7c.014-.633-.125-1.178-.414-1.64-.37-.592-.937-.888-1.7-.888-.697 0-1.264.29-1.697.87-.356.46-.567 1.013-.63 1.657h4.44zm2.033.552c0 .382-.025.704-.078.967h-6.396c.025.947.334 1.672.927 2.172.538.447 1.236.67 2.09.67.948 0 1.812-.15 2.59-.454l.333 1.48c-.908.396-1.98.594-3.217.594-1.488 0-2.656-.438-3.506-1.314-.847-.875-1.273-2.05-1.273-3.524 0-1.448.394-2.653 1.186-3.613.828-1.026 1.947-1.54 3.355-1.54 1.383 0 2.43.514 3.14 1.54.565.817.848 1.825.848 3.022zM47.945 10.038c0-.763-.202-1.348-.607-1.756-.404-.407-.994-.61-1.77-.61-.33 0-.612.022-.844.067v4.888c.13.02.365.03.708.03.802 0 1.42-.224 1.858-.67.436-.446.655-1.096.655-1.95zm1.105-.03c0 1.178-.352 2.064-1.057 2.66-.654.548-1.58.823-2.784.823-.596 0-1.107-.025-1.534-.076V6.982c.557-.09 1.157-.135 1.805-.135 1.145 0 2.01.25 2.59.747.653.562.98 1.367.98 2.415zM53.822 11.07c0-.433-.094-.806-.282-1.117-.22-.377-.533-.565-.94-.565-.42 0-.74.188-.96.565-.188.31-.282.69-.282 1.137 0 .435.094.808.28 1.12.228.375.544.563.952.563.4 0 .714-.19.94-.573.195-.318.292-.694.292-1.13zm1.087-.033c0 .725-.208 1.32-.622 1.785-.434.48-1.01.718-1.727.718-.69 0-1.242-.23-1.653-.69-.41-.458-.616-1.037-.616-1.735 0-.73.212-1.33.636-1.795.424-.466.994-.698 1.712-.698.693 0 1.248.23 1.67.69.4.445.6 1.02.6 1.725zM62.765 8.72l-1.475 4.713h-.96l-.61-2.047c-.156-.51-.282-1.018-.38-1.523h-.018c-.09.518-.217 1.026-.38 1.523l-.65 2.047h-.97L55.937 8.72h1.077l.533 2.24c.13.53.236 1.034.32 1.513h.02c.077-.394.206-.896.388-1.504l.67-2.25h.852l.64 2.2c.156.538.282 1.055.38 1.553h.028c.07-.485.178-1.002.32-1.552l.573-2.2h1.028M68.198 13.433H67.15v-2.7c0-.832-.316-1.248-.95-1.248-.31 0-.563.115-.757.344-.194.228-.29.497-.29.807v2.796h-1.05v-3.366c0-.414-.012-.863-.037-1.348h.92l.05.736h.03c.12-.23.303-.42.542-.57.284-.176.602-.264.95-.264.44 0 .806.142 1.097.427.362.348.543.868.543 1.56v2.823M70.04 13.433h1.048V6.556H70.04M76.17 11.07c0-.433-.094-.806-.28-1.117-.22-.377-.535-.565-.94-.565-.423 0-.743.188-.962.565-.187.31-.28.69-.28 1.137 0 .435.093.808.28 1.12.227.375.543.563.95.563.402 0 .714-.19.94-.573.196-.318.292-.694.292-1.13zm1.088-.033c0 .725-.207 1.32-.62 1.785-.435.48-1.01.718-1.728.718-.693 0-1.244-.23-1.654-.69-.41-.458-.615-1.037-.615-1.735 0-.73.212-1.33.635-1.795.424-.466.995-.698 1.71-.698.695 0 1.25.23 1.67.69.402.445.603 1.02.603 1.725zM81.242 11.813v-.727c-1.156-.02-1.734.297-1.734.95 0 .246.066.43.2.553.136.122.308.183.513.183.23 0 .446-.072.64-.218.2-.145.32-.33.365-.557.01-.052.017-.114.017-.185zm1.088 1.62h-.94l-.08-.543h-.03c-.32.433-.78.65-1.376.65-.445 0-.804-.142-1.076-.427-.246-.26-.37-.58-.37-.96 0-.576.24-1.015.724-1.32.482-.303 1.16-.452 2.033-.446V10.3c0-.62-.326-.93-.98-.93-.464 0-.874.115-1.227.348l-.213-.69c.437-.27.978-.406 1.617-.406 1.232 0 1.85.65 1.85 1.95v1.736c0 .472.023.847.068 1.125zM87.2 11.445v-.786c0-.137-.01-.247-.03-.33-.06-.253-.186-.465-.38-.636-.194-.172-.43-.257-.7-.257-.39 0-.697.155-.922.465-.223.31-.336.708-.336 1.193 0 .466.107.844.322 1.135.227.31.533.466.916.466.344 0 .62-.13.828-.388.202-.24.3-.527.3-.863zm1.085 1.988h-.93l-.048-.757h-.03c-.297.576-.802.864-1.513.864-.57 0-1.04-.223-1.416-.67-.375-.446-.563-1.024-.563-1.736 0-.763.203-1.38.61-1.852.396-.44.88-.66 1.457-.66.632 0 1.076.213 1.328.64h.02V6.556h1.048v5.607c0 .46.012.882.037 1.27zM96.162 11.07c0-.433-.094-.806-.28-1.117-.222-.377-.534-.565-.943-.565-.42 0-.74.188-.962.565-.187.31-.28.69-.28 1.137 0 .435.093.808.28 1.12.227.375.543.563.952.563.4 0 .715-.19.94-.573.194-.318.292-.694.292-1.13zm1.086-.033c0 .725-.207 1.32-.62 1.785-.435.48-1.01.718-1.728.718-.69 0-1.242-.23-1.654-.69-.41-.458-.615-1.037-.615-1.735 0-.73.212-1.33.636-1.795.423-.466.994-.698 1.713-.698.69 0 1.247.23 1.666.69.4.445.602 1.02.602 1.725zM102.883 13.433h-1.047v-2.7c0-.832-.316-1.248-.95-1.248-.312 0-.564.115-.757.344-.194.228-.292.497-.292.807v2.796h-1.05v-3.366c0-.414-.01-.863-.036-1.348h.92l.05.736h.028c.123-.23.305-.42.543-.57.285-.176.602-.264.95-.264.44 0 .806.142 1.097.427.363.348.543.868.543 1.56v2.823M109.936 9.504h-1.155v2.29c0 .582.206.873.613.873.187 0 .343-.016.466-.05l.027.797c-.207.077-.48.116-.815.116-.414 0-.736-.126-.968-.378-.235-.253-.35-.676-.35-1.27V9.503h-.69V8.72h.69v-.865l1.027-.31V8.72h1.156v.784M115.484 13.433h-1.048v-2.68c0-.845-.317-1.268-.95-1.268-.486 0-.818.245-1 .736-.03.104-.048.23-.048.378v2.835h-1.047V6.556h1.048v2.84h.02c.33-.516.802-.774 1.415-.774.434 0 .793.142 1.078.427.357.354.534.882.534 1.58v2.803M120.207 10.58c.008-.31-.06-.578-.203-.804-.182-.29-.46-.436-.834-.436-.342 0-.62.142-.834.427-.174.226-.277.498-.31.814h2.18zm1 .273c0 .188-.014.346-.04.475h-3.142c.014.466.164.82.455 1.067.266.22.61.33 1.03.33.465 0 .888-.074 1.27-.223l.165.727c-.447.193-.972.29-1.582.29-.73 0-1.304-.214-1.72-.645-.418-.43-.625-1.007-.625-1.73 0-.712.193-1.304.582-1.776.406-.506.955-.758 1.648-.758.678 0 1.193.252 1.54.757.28.4.42.895.42 1.483z" fill="#FFFFFE"/></g></svg>