<svg width="42" height="127" viewBox="0 0 42 127" xmlns="http://www.w3.org/2000/svg"><title>icon-edamame</title><g stroke="#F39C6B" stroke-width="2" fill="none" fill-rule="evenodd"><path d="M40.653 20.6c0 10.778-8.877 19.515-19.827 19.515C9.876 40.115 1 31.378 1 20.6 1 9.825 9.876 1.088 20.826 1.088c10.95 0 19.827 8.737 19.827 19.514zM40.653 63.438c0 10.776-8.877 19.514-19.827 19.514C9.876 82.952 1 74.214 1 63.438 1 52.66 9.876 43.923 20.826 43.923c10.95 0 19.827 8.737 19.827 19.515zM40.653 106.274c0 10.777-8.877 19.514-19.827 19.514C9.876 125.788 1 117.05 1 106.274 1 95.496 9.876 86.76 20.826 86.76c10.95 0 19.827 8.736 19.827 19.514z"/></g></svg>