<svg width="253" height="83" viewBox="0 0 253 83" xmlns="http://www.w3.org/2000/svg" xmlns:xlink="http://www.w3.org/1999/xlink"><title>arstechnica logo</title><defs><path id="a" d="M0 .688V83h82.312V.688z"/><path id="c" d="M0 84h253V1H0z"/></defs><g fill="none" fill-rule="evenodd" opacity=".3"><mask id="b" fill="#fff"><use xlink:href="#a"/></mask><path d="M82.312 41.845C82.312 64.575 63.886 83 41.157 83 18.427 83 0 64.575 0 41.845S18.426.688 41.156.688c22.73 0 41.155 18.427 41.155 41.157" fill="#DE4F12" mask="url(#b)"/><path d="M25.435 40.817c-9.025.888-10.922 3.4-10.922 5.964 0 2.04 1.332 3.348 3.64 3.348 2.667 0 5.232-1.36 7.282-3.505v-5.806zm.87 12.656l-.512-3.345C23.845 52.168 21.18 54 17.18 54 12.768 54 10 51.28 10 47.04c0-6.223 5.23-8.683 15.435-9.78v-1.048c0-3.138-1.847-4.235-4.665-4.235-2.975 0-5.797.94-8.462 2.143l-.617-4.028C14.614 28.89 17.384 28 21.18 28c5.948 0 8.82 2.46 8.82 8.003v17.47h-3.694zM40.667 38.944V54H36V28.536h3.722l.79 5.177c1.78-2.885 4.664-5.5 8.754-5.713L50 32.538c-4.14.214-7.656 3.044-9.333 6.406M63.134 54c-3.308 0-6.982-1.154-9.134-2.356l.683-4.392c2.362 1.62 5.406 2.877 8.82 2.877 3.198 0 5.088-1.204 5.088-3.297 0-2.303-1.416-3.142-5.93-4.237-5.88-1.465-8.24-3.245-8.24-7.692 0-3.975 3.36-6.904 8.82-6.904 3.095 0 5.874.628 8.238 1.672l-.735 4.395c-2.203-1.253-4.986-2.143-7.61-2.143-2.836 0-4.3 1.096-4.3 2.877 0 1.673 1.256 2.615 5.19 3.61C70.215 39.98 73 41.76 73 46.518 73 51.068 69.587 54 63.134 54" fill="#FFF"/><path d="M137.82 54C131.725 54 127 49.435 127 41.525 127 33.463 131.875 29 137.973 29c3.252 0 5.842 1.013 7.823 2.433l-.557 3.348c-2.338-1.925-4.574-2.89-7.37-2.89-4.57 0-7.466 3.702-7.466 9.583 0 5.933 2.945 9.586 7.822 9.586 2.54 0 4.827-.712 7.317-2.84l.457 3.04c-2.337 1.825-4.927 2.74-8.18 2.74M120.543 48.22c-2.488 2.13-4.777 2.84-7.317 2.84-4.42 0-7.246-3.01-7.737-7.988h14.24l.508-3.144h-14.755c.47-4.973 3.234-8.037 7.388-8.037 2.796 0 5.03.965 7.368 2.89l.56-3.345c-1.98-1.42-4.573-2.435-7.825-2.435C106.877 29 102 33.463 102 41.525 102 49.435 106.726 54 112.82 54c3.25 0 5.843-.913 8.18-2.74l-.457-3.04M166.637 54V37.2c0-3.14-1.424-5.05-4.482-5.05-2.548 0-5.143 1.598-7.794 4.227V54H151V17.62l3.36-.62v16.08c2.5-2.218 5.2-3.97 8.46-3.97 4.786 0 7.18 2.784 7.18 7.422V54h-3.363M191.637 54V37.127c0-3.156-1.428-5.073-4.483-5.073-2.547 0-5.144 1.604-7.793 4.245V54H176V29.52h2.597l.56 3.62c2.648-2.38 5.4-4.14 8.66-4.14 4.788 0 7.183 2.796 7.183 7.505V54h-3.363" fill="#222"/><mask id="d" fill="#fff"><use xlink:href="#c"/></mask><path d="M200.63 53h2.74V29.42h-2.74V53zm1.39-29.214c-1.094 0-2.02-1.097-2.02-2.392 0-1.297.926-2.394 2.02-2.394 1.095 0 1.98 1.097 1.98 2.394 0 1.295-.885 2.392-1.98 2.392zM221.82 54C215.722 54 211 49.435 211 41.525 211 33.463 215.877 29 221.973 29c3.25 0 5.84 1.013 7.823 2.433l-.558 3.348c-2.337-1.925-4.574-2.89-7.367-2.89-4.573 0-7.467 3.702-7.467 9.583 0 5.933 2.946 9.586 7.823 9.586 2.538 0 4.827-.712 7.317-2.84l.457 3.04c-2.34 1.825-4.93 2.74-8.18 2.74M249.83 40.764c-9.074.963-11.61 3.246-11.61 6.49 0 2.587 1.706 3.907 4.146 3.907 2.49 0 5.22-1.42 7.465-3.602v-6.794zm.73 12.728l-.536-3.194c-2.144 2.078-4.83 3.702-8.147 3.702-4 0-6.877-2.283-6.877-6.542 0-5.627 4.392-8.264 14.83-9.33v-1.573c0-3.244-1.854-4.614-4.78-4.614-2.734 0-5.415.864-7.954 2.13l-.44-2.99c2.684-1.217 5.32-2.08 8.587-2.08 5.124 0 7.757 2.487 7.757 7.403v17.09h-2.44zM95.725 53c-3.672 0-6.103-1.458-6.103-5.835V31.62H86v-2.817h3.622v-8.25L92.848 20v8.803h5.407l.447 2.818h-5.854v14.99c0 2.416.942 3.47 3.472 3.47.744 0 1.637-.15 2.183-.25L99 52.597c-.694.2-1.885.403-3.275.403" fill="#222" mask="url(#d)"/></g></svg>