<svg width="193" height="38" viewBox="0 0 193 38" xmlns="http://www.w3.org/2000/svg"><title>logo</title><g fill="none" fill-rule="evenodd"><path d="M189.722 36.67H2.646c-.804 0-1.462-.657-1.462-1.46V2.645c0-.804.658-1.462 1.462-1.462h187.076c.804 0 1.462.658 1.462 1.462V35.21c0 .803-.658 1.46-1.462 1.46z" stroke="#313636" stroke-width="2.368"/><path d="M18.07 22.208c.456 2.246 1.543 3.895 4 3.895 1.93 0 3.438-1.053 3.438-3.088 0-2.245-1.895-2.807-3.684-3.544-2.667-1.12-5.192-1.823-5.192-5.262 0-3.087 2.49-4.806 5.367-4.806 3.052 0 4.84 1.755 5.578 4.597l-2.246.665c-.42-1.79-1.368-3.053-3.367-3.053-1.51 0-2.983.772-2.983 2.42 0 1.72 1.052 2.212 2.456 2.843l3.894 1.72c1.65.91 2.527 2.385 2.527 4.28 0 3.473-2.422 5.438-5.79 5.438-3.404 0-5.544-2.176-6.105-5.438l2.105-.667zM43.68 18.033c2.317 0 3.545-1.053 3.545-3.158 0-2.49-1.614-3.052-3.544-3.052h-3.227v6.21h3.228zm-3.227 9.964h-2.35V9.717h5.683c4.246 0 5.895 2.316 5.895 4.983 0 3.86-2.736 5.438-5.297 5.438h-3.93v7.86zM63.995 12.454L61.4 20.91h5.19l-2.595-8.456zm-3.228 10.56l-1.72 5.44-2.314-.843L62.486 9.72h3.018l5.754 17.893-2.316.843-1.684-5.438h-6.49zM91.606 24.488c-1.474 2.316-3.228 3.825-6.07 3.825-5.333 0-7.016-4.912-7.016-9.438 0-7.298 3.858-9.473 6.806-9.473 2.842 0 4.49 1.473 5.788 3.895l-2.14 1.087c-.77-1.474-1.824-2.772-3.613-2.772-3.648 0-4.385 4.42-4.385 7.228 0 2.84.667 7.262 4.386 7.262 2.14 0 3.228-1.298 4.316-2.947l1.93 1.333zM101.078 9.718h11.402v2.105h-9.052v5.473h7.474V19.4h-7.474v6.492h9.052v2.105h-11.402M127.882 25.892c2.07 0 4-.456 4-2.947 0-1.825-1.193-3.3-3.44-3.3l-3.297.002v6.245h2.737zm-.105-8.35c2.035 0 3.05-1.3 3.05-2.948 0-2.175-1.542-2.77-3.19-2.77l-2.492-.002v5.72h2.632zM120.9 27.995v-2.104h1.894v-14.07H120.9V9.718h5.753c4.63 0 6.632 1.755 6.632 4.877 0 1.579-.667 2.98-2.07 3.754 2 .63 3.122 2.35 3.122 4.42 0 3.297-2.175 5.227-6 5.227H120.9zM148.195 12.454L145.6 20.91h5.192l-2.597-8.456zm-3.228 10.56l-1.718 5.44-2.317-.843 5.753-17.892h3.018l5.754 17.893-2.316.843-1.683-5.438h-6.493zM169.386 18.068c2.28 0 3.79-1.298 3.79-3.368 0-1.65-.983-2.877-3.09-2.877H166.3v6.245h3.088zm-5.438-8.35h6.21c3.052 0 5.472 1.44 5.472 4.982 0 2.245-1.508 4.456-3.718 5.122l4.49 7.403-2.035 1.228-4.666-8.28H166.3v7.824h-2.35V9.717z" fill="#313636"/></g></svg>