<svg width="253" height="54" viewBox="0 0 253 54" xmlns="http://www.w3.org/2000/svg"><title>engadget logo</title><g fill="#010202" fill-rule="evenodd" opacity=".3"><path d="M4.873 30.155h20.164V19.948H4.873v10.207zM0 40.12C0 42.852 2.223 45 4.963 45h20.075v-4.948H4.873v-4.95h19.94c2.74 0 5.187-2.25 5.187-4.982v.12-9.895C30 17.612 27.554 15 24.813 15H4.963C2.222 15 0 17.594 0 20.326V40.12zM70.948 39.488h20.104v-19.65H70.948v19.65zM91.092 15h-19.79C68.568 15 66 17.554 66 20.225V39.57v-.117c0 2.67 2.57 4.873 5.3 4.873h19.752v4.837H70.948V54h20.144C93.825 54 96 51.915 96 49.244v-29.02C96 17.555 93.825 15 91.092 15zM53.012 15H38.17C35.437 15 33 17.612 33 20.345V45h4.948V19.948h15.064c2.733 0 5.04 2.612 5.04 5.345V45H63V25.293C63 19.828 58.478 15 53.012 15M124.052 40.052h-20.104V25.293c0-2.733 2.7-5.345 5.433-5.345h14.672V45H129V20.345c0-2.733-2.044-5.345-4.776-5.345H109.38C103.917 15 99 19.828 99 25.293v14.842c0 2.733 2.7 4.865 5.433 4.865h8.73c4.396 0 9.033-1.828 10.89-4.863V45M237.923 0H233v44h4.923V19.42H253v-4.854h-15.077M137.948 39.145h19.794V19.42h-19.794v19.725zm19.794-24.58h-19.177c-2.733 0-5.565 2.564-5.565 5.245v19.417-.118c0 2.68 2.832 4.89 5.565 4.89H163V0h-5.258v14.566zM204.948 30.155h20.104V19.948h-20.104v10.207zM200 40.135c0 2.733 2.855 4.865 5.588 4.865h19.464v-4.948h-20.104v-4.95h20.43c2.733 0 4.622-2.25 4.622-4.982v.12-9.895c0-2.733-1.89-5.345-4.622-5.345h-19.79c-2.733 0-5.588 2.612-5.588 5.345v19.79zM172.258 39.488h19.794v-19.65h-19.794v19.65zM192.232 15h-19.79C169.71 15 167 17.554 167 20.225V39.57v-.117c0 2.67 2.71 4.873 5.442 4.873h19.61v4.837h-19.794V54h19.974c2.733 0 4.768-2.085 4.768-4.756v-29.02c0-2.67-2.035-5.224-4.768-5.224z"/></g></svg>