<svg width="254" height="50" viewBox="0 0 254 50" xmlns="http://www.w3.org/2000/svg"><title>medium logo</title><path d="M128.29 44.42c0 .88 0 1.08.594 1.62l3.332 3.28v.14H117.44v-6.3c-1.486 4.15-5.418 6.897-9.795 6.84-7.596 0-13.11-6-13.11-17.04 0-10.34 5.95-17.24 14.3-17.24 3.7-.235 7.144 1.914 8.586 5.36V7.18c.11-.644-.15-1.295-.673-1.68l-3.173-3.08v-.14L128.29.54v43.88zm-10.85-2V21.68c-1.07-1.342-2.694-2.11-4.4-2.08-3.59 0-7.06 3.28-7.06 13.02 0 9.12 2.993 12.34 6.722 12.34 1.89-.04 3.65-.983 4.74-2.54zm20.646 7.04v-28c.094-.626-.13-1.257-.595-1.68l-3.27-3.4v-.14h14.773v28.4c0 .88 0 1.08.595 1.62l3.252 3.08v.14l-14.754-.02zM137.55 6c0-3.314 2.664-6 5.95-6 3.285 0 5.95 2.686 5.95 6s-2.665 6-5.95 6c-3.286 0-5.95-2.686-5.95-6zm51.304 38.36c0 .88 0 1.14.595 1.68l3.33 3.28v.14h-14.853v-7.18c-1.353 4.54-5.473 7.666-10.174 7.72-6.584 0-10.114-4.84-10.114-14 0-4.42 0-9.26.138-14.7.11-.61-.12-1.23-.595-1.62l-3.272-3.3v-.14h14.657V34.5c0 6 .872 10 4.6 10 2.003-.127 3.807-1.262 4.8-3.02v-20c.094-.626-.13-1.257-.595-1.68l-3.292-3.42v-.14h14.774v28.12zm50.292 5.1c0-1.08.2-14.84.2-18 0-6-.933-10.14-5.118-10.14-2.105.065-4.055 1.134-5.255 2.88.42 1.87.62 3.783.595 5.7 0 4.16-.14 9.46-.2 14.76-.107.608.12 1.23.596 1.62l3.332 3.08v.14h-14.913c0-1 .198-14.84.198-18 0-6.1-.93-10.14-5.056-10.14-2.033.073-3.888 1.19-4.918 2.96v20.4c0 .88 0 1.08.595 1.62l3.253 3.08v.14H197.7v-28c.093-.626-.13-1.257-.596-1.68l-3.272-3.5v-.14h14.774v7.12c1.37-4.7 5.736-7.86 10.59-7.66 4.918 0 8.25 2.76 9.658 8 1.564-4.833 6.065-8.076 11.105-8 6.583 0 10.312 4.9 10.312 14.16 0 4.42-.14 9.46-.2 14.76-.114.626.15 1.263.676 1.62L254 49.32v.14h-14.854zm-185.6-4.36l4.38 4.22v.14h-22.23v-.14l4.462-4.22c.476-.39.704-1.012.595-1.62V16.5c0-1.14 0-2.68.2-4L25.958 50h-.18L10.254 15.5c-.337-.86-.436-.92-.655-1.5v22.62c-.186 1.513.07 3.05.734 4.42l6.247 8.28v.14H0v-.14l6.247-8.3c.66-1.365.914-2.893.734-4.4v-25c.102-1.23-.267-2.455-1.03-3.42L1.526 2.42v-.14h15.865L30.68 31.5l11.7-29.22h15.528v.14l-4.363 4.9c-.523.385-.784 1.036-.675 1.68v34.48c-.115.626.15 1.263.675 1.62zm17.39-13.52v.14c0 8.56 4.383 12 9.52 12 4.29.147 8.258-2.278 10.114-6.18h.14C88.923 46 83.727 50 75.953 50c-8.39 0-16.3-5.1-16.3-16.92 0-12.42 7.93-17.38 16.697-17.38 7.06 0 14.577 3.36 14.577 14.16v1.72h-19.99zm0-1.72h9.778v-1.74c0-8.8-1.805-11.14-4.522-11.14-3.292 0-5.295 3.5-5.295 12.88h.04z" fill-rule="nonzero" fill="#1C1B1A" opacity=".3"/></svg>